<?xml version="1.0" standalone="no"?>
<!DOCTYPE svg PUBLIC "-//W3C//DTD SVG 20010904//EN"
 "http://www.w3.org/TR/2001/REC-SVG-20010904/DTD/svg10.dtd">
<svg version="1.0" xmlns="http://www.w3.org/2000/svg"
 width="512.000000pt" height="512.000000pt" viewBox="0 0 512.000000 512.000000"
 preserveAspectRatio="xMidYMid meet">

<g transform="translate(0.000000,512.000000) scale(0.100000,-0.100000)"
fill="#000000" stroke="none">
<path d="M2375 4654 c-299 -32 -516 -87 -695 -180 -180 -92 -277 -206 -300
-351 -18 -107 22 -526 105 -1110 25 -172 45 -316 45 -321 0 -5 29 -26 65 -47
35 -21 90 -60 120 -88 l56 -50 117 26 c229 51 342 61 672 61 330 0 443 -10
672 -61 l117 -26 56 50 c30 28 84 67 119 87 l63 37 17 117 c88 602 137 1035
138 1225 1 102 -3 131 -20 177 -81 210 -377 367 -822 435 -101 15 -441 28
-525 19z"/>
<path d="M1052 2554 c-328 -111 -476 -480 -316 -785 20 -37 58 -90 84 -118 56
-59 157 -126 213 -143 21 -6 41 -17 43 -22 3 -9 74 -980 74 -1014 0 -9 47 -12
185 -12 l184 0 5 33 c6 34 36 365 36 391 0 14 97 16 1000 16 903 0 1000 -2
1000 -16 0 -26 30 -357 36 -391 l5 -33 184 0 c164 0 185 2 185 16 0 37 71
1000 74 1010 2 5 22 16 43 22 57 17 157 85 215 145 62 65 123 188 139 281 48
279 -123 547 -400 630 -67 20 -216 21 -286 2 -118 -31 -232 -106 -300 -198
-21 -29 -40 -54 -40 -56 -1 -1 -27 7 -59 18 -199 68 -466 103 -796 103 -330 0
-597 -35 -797 -104 -48 -16 -58 -17 -65 -5 -36 64 -146 164 -224 202 -125 61
-293 73 -422 28z"/>
</g>
</svg>
